<svg xmlns="http://www.w3.org/2000/svg" viewBox="0 0 720 210" role="img" aria-labelledby="title desc">
  <title id="title">Dhyana</title>
  <desc id="desc">Dhyana The Spirit of Kitchenware logo</desc>
  <rect width="720" height="210" fill="white"/>
  <g transform="translate(8 8)">
    <rect x="0" y="0" width="120" height="120" fill="#075f9d"/>
    <rect x="0" y="128" width="120" height="72" fill="#ed1c24"/>
    <rect x="128" y="56" width="120" height="88" fill="#ed1c24"/>
    <rect x="128" y="152" width="120" height="48" fill="#075f9d"/>
    <g fill="white">
      <path d="M24 30h72l-12 10H36z"/>
      <path d="M29 48h62L80 58H40z"/>
      <path d="M34 66h52L76 76H44z"/>
      <path d="M39 84h42l-9 10H48z"/>
      <path d="M152 94h44v10h-44z"/>
      <rect x="155" y="78" width="34" height="44" rx="5"/>
      <rect x="166" y="66" width="12" height="18" rx="3"/>
      <path d="M190 89h40c6 0 6 14 0 14h-40z"/>
      <path d="M23 166c0-25 70-25 70 0 0 21-9 27-35 27s-35-6-35-27z" fill="none" stroke="white" stroke-width="7"/>
      <path d="M13 162h20M83 162h22" stroke="white" stroke-width="7" stroke-linecap="round"/>
      <path d="M50 138c10-10 18-6 22 3" fill="none" stroke="white" stroke-width="6" stroke-linecap="round"/>
      <rect x="150" y="166" width="7" height="31" rx="3"/>
      <rect x="162" y="160" width="7" height="37" rx="3"/>
      <ellipse cx="184" cy="178" rx="10" ry="19"/>
      <ellipse cx="211" cy="178" rx="11" ry="20"/>
      <rect x="206" y="177" width="10" height="22" rx="4"/>
    </g>
  </g>
  <text x="285" y="118" fill="#075f9d" font-family="'Segoe UI', Arial, sans-serif" font-size="94" font-weight="500">Dhyana</text>
  <text x="285" y="176" fill="#075f9d" font-family="'Segoe UI', Arial, sans-serif" font-size="38" font-weight="400">The Spirit of Kitchenware</text>
</svg>
